<?xml version="1.0" standalone="no"?>
<!DOCTYPE svg PUBLIC "-//W3C//DTD SVG 20010904//EN"
 "http://www.w3.org/TR/2001/REC-SVG-20010904/DTD/svg10.dtd">
<svg version="1.0" xmlns="http://www.w3.org/2000/svg"
 width="416.000000pt" height="416.000000pt" viewBox="0 0 416.000000 416.000000"
 preserveAspectRatio="xMidYMid meet">
<metadata>
Created by potrace 1.14, written by Peter Selinger 2001-2017
</metadata>
<g transform="translate(0.000000,416.000000) scale(0.100000,-0.100000)"
fill="#000000" stroke="none">
<path d="M0 2080 l0 -2080 2080 0 2080 0 0 2080 0 2080 -2080 0 -2080 0 0
-2080z m1665 743 c64 -58 389 -313 399 -313 7 0 95 66 196 148 101 81 206 165
233 186 l51 40 33 -39 c18 -21 33 -45 33 -54 -1 -15 -52 -59 -315 -269 -60
-48 -110 -94 -110 -102 0 -8 61 -63 135 -122 74 -60 142 -114 150 -121 9 -6
41 -32 73 -56 66 -51 77 -66 77 -114 0 -50 -38 -87 -265 -259 -55 -42 -118
-92 -140 -111 l-40 -35 25 -27 c14 -15 97 -83 185 -151 197 -152 225 -177 225
-195 0 -8 -15 -31 -33 -52 l-32 -38 -140 112 c-218 174 -330 259 -342 259 -10
0 -111 -74 -174 -128 -13 -11 -58 -48 -99 -82 -41 -34 -84 -69 -95 -79 -11 -9
-41 -31 -67 -49 l-47 -32 -30 37 c-17 21 -31 45 -31 54 0 10 41 50 93 90 234
185 327 261 333 271 9 14 -23 41 -216 191 -198 154 -220 176 -220 221 0 21 4
45 10 55 5 10 89 81 187 157 202 158 247 199 238 214 -7 11 -329 271 -382 308
-54 37 -56 52 -17 99 l35 42 32 -19 c18 -11 41 -27 52 -37z"/>
<path d="M1864 2179 c-104 -83 -193 -155 -198 -160 -11 -10 -15 -7 227 -201
l171 -137 37 27 c20 15 54 41 75 58 135 109 176 142 232 186 35 28 62 54 60
59 -5 14 -389 319 -403 319 -6 0 -97 -68 -201 -151z"/>
</g>
</svg>
